<svg width="18" height="19" viewBox="0 0 18 19" fill="none" xmlns="http://www.w3.org/2000/svg">
<path d="M7.55176 2H11.0515V9.52777H7.55176V2Z" fill="#232B35"/>
<path d="M7.00239 9.52777H7.08953V2H6V8.53465C6.00259 8.79878 6.10931 9.05123 6.29702 9.23717C6.48462 9.423 6.73813 9.52736 7.00238 9.52747L7.00239 9.52777Z" fill="#232B35"/>
<path d="M8.64111 9.99023H9.96175V11.1788H8.64111V9.99023Z" fill="#232B35"/>
<path d="M12.6032 8.53465V2H11.5137V9.52777H11.6008C11.8651 9.52765 12.1186 9.4233 12.3062 9.23747C12.4939 9.05151 12.6006 8.79908 12.6032 8.53495L12.6032 8.53465Z" fill="#232B35"/>
<path d="M11.9543 14.0696L10.2419 13.8208V13.8207C10.1665 13.8099 10.1014 13.7626 10.0678 13.6943L9.30187 12.1426L8.5359 13.6943C8.50218 13.7626 8.43709 13.8099 8.36186 13.8207L6.64941 14.0695L7.88891 15.2776C7.94339 15.3306 7.96826 15.4071 7.95541 15.4823L7.66287 17.1879L9.19456 16.3826V16.3825C9.26189 16.3471 9.34231 16.3471 9.40964 16.3825L10.9413 17.1878L10.6488 15.4821V15.4823C10.6359 15.4071 10.6607 15.3306 10.7153 15.2776L11.9543 14.0696Z" fill="#232B35"/>
</svg>
