<svg width="44" height="44" viewBox="0 0 44 44" fill="none" xmlns="http://www.w3.org/2000/svg">
<circle cx="22" cy="22" r="22" fill="#377DFF" fill-opacity="0.1"/>
<path d="M22 11C16.4706 11 12 15.4706 12 21C12 26.5294 16.4706 31 22 31C27.5294 31 32 26.5294 32 21C32 15.4706 27.5294 11 22 11ZM22 28.6471C17.7647 28.6471 14.3529 25.2353 14.3529 21C14.3529 16.7647 17.7647 13.3529 22 13.3529C26.2353 13.3529 29.6471 16.7647 29.6471 21C29.6471 25.2353 26.2353 28.6471 22 28.6471Z" fill="#377DFF"/>
<path d="M21.9999 14.5293C18.4116 14.5293 15.5293 17.4116 15.5293 20.9999C15.5293 24.5881 18.4116 27.4705 21.9999 27.4705C25.5881 27.4705 28.4705 24.5881 28.4705 20.9999C28.4705 17.4116 25.5881 14.5293 21.9999 14.5293ZM21.9999 20.4116C22.6469 20.4116 23.2352 20.6469 23.6469 20.9999C24.0587 21.3528 24.3528 21.8822 24.3528 22.4705C24.3528 23.4116 23.7646 24.2352 22.5881 24.4705V25.7058H21.4116V24.4705C20.2352 24.2352 19.7646 23.5881 19.6469 22.7646H20.8822C21.0587 23.1175 21.4705 23.3528 21.9999 23.3528C22.6469 23.3528 23.1764 22.9411 23.1764 22.4705C23.1764 21.9999 22.6469 21.5881 21.9999 21.5881C21.3528 21.5881 20.7646 21.3528 20.3528 20.9999C19.9411 20.6469 19.6469 20.1175 19.6469 19.5293C19.6469 18.5293 20.2352 17.7646 21.4116 17.5293V16.294H22.5881V17.5293C23.7646 17.7646 24.2352 18.4116 24.3528 19.2352H23.1175C22.9411 18.8822 22.5293 18.6469 21.9999 18.6469C21.3528 18.6469 20.8234 19.0587 20.8234 19.5293C20.8234 19.9999 21.3528 20.4116 21.9999 20.4116Z" fill="#377DFF"/>
</svg>
