<svg width="44" height="44" viewBox="0 0 44 44" fill="none" xmlns="http://www.w3.org/2000/svg">
<circle cx="22" cy="22" r="22" fill="#38CB89" fill-opacity="0.1"/>
<path d="M22 12C16.4706 12 12 16.4706 12 22C12 27.5294 16.4706 32 22 32C27.5294 32 32 27.5294 32 22C32 16.4706 27.5294 12 22 12ZM22 29.6471C17.7647 29.6471 14.3529 26.2353 14.3529 22C14.3529 17.7647 17.7647 14.3529 22 14.3529C26.2353 14.3529 29.6471 17.7647 29.6471 22C29.6471 26.2353 26.2353 29.6471 22 29.6471Z" fill="#38CB89"/>
<path d="M21.9999 15.5293C18.4116 15.5293 15.5293 18.4116 15.5293 21.9999C15.5293 25.5881 18.4116 28.4705 21.9999 28.4705C25.5881 28.4705 28.4705 25.5881 28.4705 21.9999C28.4705 18.4116 25.5881 15.5293 21.9999 15.5293ZM21.9999 21.4116C22.6469 21.4116 23.2352 21.6469 23.6469 21.9999C24.0587 22.3528 24.3528 22.8822 24.3528 23.4705C24.3528 24.4116 23.7646 25.2352 22.5881 25.4705V26.7058H21.4116V25.4705C20.2352 25.2352 19.7646 24.5881 19.6469 23.7646H20.8822C21.0587 24.1175 21.4705 24.3528 21.9999 24.3528C22.6469 24.3528 23.1764 23.9411 23.1764 23.4705C23.1764 22.9999 22.6469 22.5881 21.9999 22.5881C21.3528 22.5881 20.7646 22.3528 20.3528 21.9999C19.9411 21.6469 19.6469 21.1175 19.6469 20.5293C19.6469 19.5293 20.2352 18.7646 21.4116 18.5293V17.294H22.5881V18.5293C23.7646 18.7646 24.2352 19.4116 24.3528 20.2352H23.1175C22.9411 19.8822 22.5293 19.6469 21.9999 19.6469C21.3528 19.6469 20.8234 20.0587 20.8234 20.5293C20.8234 20.9999 21.3528 21.4116 21.9999 21.4116Z" fill="#38CB89"/>
</svg>
