<svg width="44" height="44" viewBox="0 0 44 44" fill="none" xmlns="http://www.w3.org/2000/svg">
<circle cx="22" cy="22" r="22" fill="#FF9B06" fill-opacity="0.1"/>
<path d="M26.7502 13.56V12C26.7502 11.59 26.4102 11.25 26.0002 11.25C25.5902 11.25 25.2502 11.59 25.2502 12V13.5H18.7502V12C18.7502 11.59 18.4102 11.25 18.0002 11.25C17.5902 11.25 17.2502 11.59 17.2502 12V13.56C14.5502 13.81 13.2402 15.42 13.0402 17.81C13.0202 18.1 13.2602 18.34 13.5402 18.34H30.4602C30.7502 18.34 30.9902 18.09 30.9602 17.81C30.7602 15.42 29.4502 13.81 26.7502 13.56Z" fill="#FFA600"/>
<path d="M30 19.8398H14C13.45 19.8398 13 20.2898 13 20.8398V26.9998C13 29.9998 14.5 31.9998 18 31.9998H26C29.5 31.9998 31 29.9998 31 26.9998V20.8398C31 20.2898 30.55 19.8398 30 19.8398ZM19.21 28.2098C19.16 28.2498 19.11 28.2998 19.06 28.3298C19 28.3698 18.94 28.3998 18.88 28.4198C18.82 28.4498 18.76 28.4698 18.7 28.4798C18.63 28.4898 18.57 28.4998 18.5 28.4998C18.37 28.4998 18.24 28.4698 18.12 28.4198C17.99 28.3698 17.89 28.2998 17.79 28.2098C17.61 28.0198 17.5 27.7598 17.5 27.4998C17.5 27.2398 17.61 26.9798 17.79 26.7898C17.89 26.6998 17.99 26.6298 18.12 26.5798C18.3 26.4998 18.5 26.4798 18.7 26.5198C18.76 26.5298 18.82 26.5498 18.88 26.5798C18.94 26.5998 19 26.6298 19.06 26.6698C19.11 26.7098 19.16 26.7498 19.21 26.7898C19.39 26.9798 19.5 27.2398 19.5 27.4998C19.5 27.7598 19.39 28.0198 19.21 28.2098ZM19.21 24.7098C19.02 24.8898 18.76 24.9998 18.5 24.9998C18.24 24.9998 17.98 24.8898 17.79 24.7098C17.61 24.5198 17.5 24.2598 17.5 23.9998C17.5 23.7398 17.61 23.4798 17.79 23.2898C18.07 23.0098 18.51 22.9198 18.88 23.0798C19.01 23.1298 19.12 23.1998 19.21 23.2898C19.39 23.4798 19.5 23.7398 19.5 23.9998C19.5 24.2598 19.39 24.5198 19.21 24.7098ZM22.71 28.2098C22.52 28.3898 22.26 28.4998 22 28.4998C21.74 28.4998 21.48 28.3898 21.29 28.2098C21.11 28.0198 21 27.7598 21 27.4998C21 27.2398 21.11 26.9798 21.29 26.7898C21.66 26.4198 22.34 26.4198 22.71 26.7898C22.89 26.9798 23 27.2398 23 27.4998C23 27.7598 22.89 28.0198 22.71 28.2098ZM22.71 24.7098C22.66 24.7498 22.61 24.7898 22.56 24.8298C22.5 24.8698 22.44 24.8998 22.38 24.9198C22.32 24.9498 22.26 24.9698 22.2 24.9798C22.13 24.9898 22.07 24.9998 22 24.9998C21.74 24.9998 21.48 24.8898 21.29 24.7098C21.11 24.5198 21 24.2598 21 23.9998C21 23.7398 21.11 23.4798 21.29 23.2898C21.38 23.1998 21.49 23.1298 21.62 23.0798C21.99 22.9198 22.43 23.0098 22.71 23.2898C22.89 23.4798 23 23.7398 23 23.9998C23 24.2598 22.89 24.5198 22.71 24.7098ZM26.21 28.2098C26.02 28.3898 25.76 28.4998 25.5 28.4998C25.24 28.4998 24.98 28.3898 24.79 28.2098C24.61 28.0198 24.5 27.7598 24.5 27.4998C24.5 27.2398 24.61 26.9798 24.79 26.7898C25.16 26.4198 25.84 26.4198 26.21 26.7898C26.39 26.9798 26.5 27.2398 26.5 27.4998C26.5 27.7598 26.39 28.0198 26.21 28.2098ZM26.21 24.7098C26.16 24.7498 26.11 24.7898 26.06 24.8298C26 24.8698 25.94 24.8998 25.88 24.9198C25.82 24.9498 25.76 24.9698 25.7 24.9798C25.63 24.9898 25.56 24.9998 25.5 24.9998C25.24 24.9998 24.98 24.8898 24.79 24.7098C24.61 24.5198 24.5 24.2598 24.5 23.9998C24.5 23.7398 24.61 23.4798 24.79 23.2898C24.89 23.1998 24.99 23.1298 25.12 23.0798C25.3 22.9998 25.5 22.9798 25.7 23.0198C25.76 23.0298 25.82 23.0498 25.88 23.0798C25.94 23.0998 26 23.1298 26.06 23.1698C26.11 23.2098 26.16 23.2498 26.21 23.2898C26.39 23.4798 26.5 23.7398 26.5 23.9998C26.5 24.2598 26.39 24.5198 26.21 24.7098Z" fill="#FFA600"/>
</svg>
