<svg width="24" height="24" viewBox="0 0 24 24" fill="none" xmlns="http://www.w3.org/2000/svg">
<path d="M20.1902 14.0598L19.0602 12.1798C18.8102 11.7698 18.5902 10.9798 18.5902 10.4998V8.6298C18.5902 4.9998 15.6402 2.0498 12.0202 2.0498C8.3902 2.0598 5.4402 4.9998 5.4402 8.6298V10.4898C5.4402 10.9698 5.2202 11.7598 4.9802 12.1698L3.8502 14.0498C3.4202 14.7798 3.3202 15.6098 3.5902 16.3298C3.8602 17.0598 4.4702 17.6398 5.2702 17.8998C6.3502 18.2598 7.4402 18.5198 8.5502 18.7098C8.6602 18.7298 8.7702 18.7398 8.8802 18.7598C9.0202 18.7798 9.1702 18.7998 9.3202 18.8198C9.5802 18.8598 9.8402 18.8898 10.1102 18.9098C10.7402 18.9698 11.3802 18.9998 12.0202 18.9998C12.6502 18.9998 13.2802 18.9698 13.9002 18.9098C14.1302 18.8898 14.3602 18.8698 14.5802 18.8398C14.7602 18.8198 14.9402 18.7998 15.1202 18.7698C15.2302 18.7598 15.3402 18.7398 15.4502 18.7198C16.5702 18.5398 17.6802 18.2598 18.7602 17.8998C19.5302 17.6398 20.1202 17.0598 20.4002 16.3198C20.6802 15.5698 20.6002 14.7498 20.1902 14.0598ZM12.7502 9.9998C12.7502 10.4198 12.4102 10.7598 11.9902 10.7598C11.5702 10.7598 11.2302 10.4198 11.2302 9.9998V6.89981C11.2302 6.4798 11.5702 6.1398 11.9902 6.1398C12.4102 6.1398 12.7502 6.4798 12.7502 6.89981V9.9998Z" fill="#1E293B"/>
<path d="M14.8302 20.01C14.4102 21.17 13.3002 22 12.0002 22C11.2102 22 10.4302 21.68 9.88018 21.11C9.56018 20.81 9.32018 20.41 9.18018 20C9.31018 20.02 9.44018 20.03 9.58018 20.05C9.81018 20.08 10.0502 20.11 10.2902 20.13C10.8602 20.18 11.4402 20.21 12.0202 20.21C12.5902 20.21 13.1602 20.18 13.7202 20.13C13.9302 20.11 14.1402 20.1 14.3402 20.07C14.5002 20.05 14.6602 20.03 14.8302 20.01Z" fill="#1E293B"/>
<circle cx="19" cy="5" r="5" fill="#EF7F1A"/>
<path d="M18.126 4.85254C18.126 5.2002 18.0996 5.51074 18.0469 5.78418C17.9941 6.05762 17.9111 6.28906 17.7979 6.47852C17.6846 6.66797 17.5381 6.8125 17.3584 6.91211C17.1787 7.00977 16.9629 7.05859 16.7109 7.05859C16.3926 7.05859 16.1289 6.97168 15.9199 6.79785C15.7129 6.62402 15.5576 6.37305 15.4541 6.04492C15.3525 5.71484 15.3018 5.31738 15.3018 4.85254C15.3018 4.39551 15.3477 4.00293 15.4395 3.6748C15.5332 3.34473 15.6836 3.0918 15.8906 2.91602C16.0977 2.73828 16.3711 2.64941 16.7109 2.64941C17.0332 2.64941 17.2988 2.7373 17.5078 2.91309C17.7168 3.08691 17.8721 3.33887 17.9736 3.66895C18.0752 3.99707 18.126 4.3916 18.126 4.85254ZM15.791 4.85254C15.791 5.25098 15.8213 5.58301 15.8818 5.84863C15.9424 6.11426 16.04 6.31348 16.1748 6.44629C16.3115 6.57715 16.4902 6.64258 16.7109 6.64258C16.9316 6.64258 17.1094 6.57715 17.2441 6.44629C17.3809 6.31543 17.4795 6.11719 17.54 5.85156C17.6025 5.58594 17.6338 5.25293 17.6338 4.85254C17.6338 4.45996 17.6035 4.13184 17.543 3.86816C17.4824 3.60254 17.3848 3.40332 17.25 3.27051C17.1152 3.13574 16.9355 3.06836 16.7109 3.06836C16.4863 3.06836 16.3066 3.13574 16.1719 3.27051C16.0371 3.40332 15.9395 3.60254 15.8789 3.86816C15.8203 4.13184 15.791 4.45996 15.791 4.85254ZM21.3779 3.71582C21.3779 3.90723 21.3408 4.07324 21.2666 4.21387C21.1924 4.35449 21.0889 4.46973 20.9561 4.55957C20.8232 4.64746 20.667 4.70898 20.4873 4.74414V4.76758C20.8271 4.81055 21.082 4.91992 21.252 5.0957C21.4238 5.27148 21.5098 5.50195 21.5098 5.78711C21.5098 6.03516 21.4512 6.25488 21.334 6.44629C21.2188 6.6377 21.041 6.78809 20.8008 6.89746C20.5625 7.00488 20.2568 7.05859 19.8838 7.05859C19.6572 7.05859 19.4473 7.04004 19.2539 7.00293C19.0625 6.96777 18.8789 6.9082 18.7031 6.82422V6.36719C18.8809 6.45508 19.0742 6.52441 19.2832 6.5752C19.4922 6.62402 19.6943 6.64844 19.8896 6.64844C20.2803 6.64844 20.5625 6.57129 20.7363 6.41699C20.9102 6.26074 20.9971 6.04785 20.9971 5.77832C20.9971 5.59277 20.9482 5.44336 20.8506 5.33008C20.7549 5.21484 20.6162 5.13086 20.4346 5.07812C20.2549 5.02344 20.0381 4.99609 19.7842 4.99609H19.3564V4.58008H19.7871C20.0195 4.58008 20.2168 4.5459 20.3789 4.47754C20.541 4.40918 20.6641 4.31348 20.748 4.19043C20.834 4.06543 20.877 3.91797 20.877 3.74805C20.877 3.53125 20.8047 3.36426 20.6602 3.24707C20.5156 3.12793 20.3193 3.06836 20.0713 3.06836C19.9189 3.06836 19.7803 3.08398 19.6553 3.11523C19.5303 3.14648 19.4131 3.18945 19.3037 3.24414C19.1943 3.29883 19.085 3.3623 18.9756 3.43457L18.7295 3.10059C18.8857 2.97949 19.0762 2.875 19.3008 2.78711C19.5254 2.69922 19.7803 2.65527 20.0654 2.65527C20.5029 2.65527 20.8311 2.75488 21.0498 2.9541C21.2686 3.15332 21.3779 3.40723 21.3779 3.71582Z" fill="#F5F6FA"/>
</svg>
