<svg width="24" height="25" viewBox="0 0 24 25" fill="none" xmlns="http://www.w3.org/2000/svg">
<path fill-rule="evenodd" clip-rule="evenodd" d="M19.0188 17.0878L19.0194 4.36061L10.4449 4.39865V5.5454H17.8343V17.0879L19.0188 17.0878ZM16.9735 19.1332L16.9741 6.40593L8.39961 6.44397V7.59073H15.789V19.1332L16.9735 19.1332ZM14.1512 14.3734C14.1512 12.2986 12.4693 10.6167 10.3946 10.6167C8.31981 10.6167 6.63795 12.2987 6.63795 14.3734C6.63795 16.4478 8.3197 18.13 10.3946 18.13C12.4692 18.13 14.1512 16.448 14.1512 14.3734ZM19.88 3.5V17.9863H17.8347V20.0316H15.7894V20.6006L14.3696 22.0202L13.3711 21.0219L12.3585 22.0178L11.3711 21.0304L10.3669 22.0178L9.37962 21.0304L8.37526 22.0178L7.38196 21.0244L6.3862 22.0203L5 20.6344V7.59076H7.50106V5.54543H9.54653V3.50011L19.88 3.5ZM11.6796 14.6133C11.9611 15.1593 11.8458 15.9708 11.3296 16.3592C11.1682 16.4807 10.9739 16.557 10.7714 16.5974L10.839 17.1203H9.9258L9.99542 16.5816C9.80207 16.5335 9.62035 16.4501 9.46906 16.3263C9.17925 16.0898 9.02909 15.7364 8.96048 15.3761L9.65566 15.2192C9.71566 15.5921 9.9927 15.8868 10.4034 15.8868C10.6349 15.8868 10.8093 15.828 10.9267 15.7103C11.0767 15.56 11.1554 15.3328 11.0744 15.1335C10.9682 14.8724 10.6441 14.7966 10.3919 14.7219C10.1071 14.6376 9.81112 14.5625 9.56653 14.3936C8.83703 13.8903 8.88815 12.6732 9.73289 12.3049C9.81916 12.2671 9.91017 12.2419 10.0028 12.2224L9.92581 11.6264H10.839L10.7608 12.2325C10.9127 12.2677 11.0592 12.3215 11.1891 12.4036C11.4637 12.5773 11.6125 12.8548 11.6778 13.1518L10.9486 13.2962C10.9134 13.1927 10.8577 13.0962 10.771 13.0265C10.6697 12.9454 10.535 12.908 10.4024 12.9039C10.1651 12.8961 9.85504 12.9577 9.7645 13.1968C9.7144 13.329 9.74828 13.4828 9.84933 13.5849C9.9402 13.6764 10.1604 13.7716 10.5102 13.8708C10.8599 13.97 11.1187 14.0727 11.2863 14.1787C11.4538 14.2848 11.5849 14.4296 11.6796 14.6133L11.6796 14.6133Z" fill="url(#paint0_linear_420_20)"/>
<defs>
<linearGradient id="paint0_linear_420_20" x1="5" y1="3.5" x2="23.0854" y2="18.0306" gradientUnits="userSpaceOnUse">
<stop stop-color="#EF7F1A"/>
<stop offset="1" stop-color="#1E293B"/>
</linearGradient>
</defs>
</svg>
