<svg width="18" height="19" viewBox="0 0 18 19" fill="none" xmlns="http://www.w3.org/2000/svg">
<path fill-rule="evenodd" clip-rule="evenodd" d="M14.2641 12.9409L14.2646 3.39546L7.8337 3.42399V4.28405H13.3757V12.9409L14.2641 12.9409ZM12.7301 14.4749L12.7306 4.92945L6.29971 4.95798V5.81804H11.8418V14.4749L12.7301 14.4749ZM10.6134 10.905C10.6134 9.34895 9.35196 8.08755 7.79592 8.08755C6.23986 8.08755 4.97846 9.34906 4.97846 10.905C4.97846 12.4609 6.23977 13.7225 7.79592 13.7225C9.35188 13.7225 10.6134 12.461 10.6134 10.905ZM14.91 2.75V13.6147H13.376V15.1487H11.842V15.5755L10.7772 16.6402L10.0283 15.8914L9.2689 16.6384L8.52833 15.8978L7.77517 16.6384L7.03472 15.8978L6.28145 16.6384L5.53647 15.8933L4.78965 16.6402L3.75 15.6008V5.81807H5.62579V4.28407H7.15989V2.75008L14.91 2.75ZM8.7597 11.085C8.97081 11.4945 8.88437 12.1031 8.49723 12.3944C8.37612 12.4855 8.23046 12.5428 8.07857 12.573L8.12928 12.9652H7.44435L7.49656 12.5612C7.35155 12.5251 7.21526 12.4626 7.10179 12.3698C6.88444 12.1923 6.77182 11.9273 6.72036 11.6571L7.24174 11.5394C7.28674 11.8191 7.49452 12.0401 7.80254 12.0401C7.97619 12.0401 8.10699 11.996 8.19505 11.9077C8.30755 11.795 8.36654 11.6246 8.30582 11.4752C8.22616 11.2793 7.98307 11.2225 7.79392 11.1664C7.58033 11.1032 7.35834 11.0469 7.1749 10.9202C6.62778 10.5428 6.66611 9.62993 7.29967 9.35367C7.36437 9.32536 7.43263 9.30641 7.50207 9.29177L7.44436 8.84477H8.12928L8.07061 9.2994C8.18451 9.32578 8.29443 9.36615 8.39185 9.42773C8.5978 9.55799 8.70934 9.76608 8.75832 9.98882L8.21141 10.0971C8.18504 10.0195 8.14327 9.94716 8.07824 9.89484C8.00224 9.83402 7.90126 9.80602 7.80179 9.8029C7.62383 9.79709 7.39128 9.84327 7.32337 10.0226C7.2858 10.1218 7.31121 10.2371 7.387 10.3136C7.45515 10.3823 7.62029 10.4537 7.88264 10.5281C8.14489 10.6025 8.33901 10.6796 8.46474 10.759C8.59037 10.8386 8.68866 10.9472 8.75971 11.085L8.7597 11.085Z" fill="#F5F6FA"/>
</svg>
