<svg width="18" height="19" viewBox="0 0 18 19" fill="none" xmlns="http://www.w3.org/2000/svg">
<g clip-path="url(#clip0_420_158)">
<path d="M11.697 10.6804V9.3229C11.697 9.15783 11.5685 9.01107 11.4034 8.99278L10.4313 8.84601C10.3213 8.5892 10.3029 8.51589 10.1928 8.25894L10.7799 7.47023C10.8899 7.34176 10.8717 7.1401 10.7432 7.02994L9.88102 6.16778C9.75256 6.03931 9.5692 6.03931 9.44074 6.13106L8.65202 6.71813C8.39522 6.60808 8.3219 6.58966 8.06496 6.47962L7.91819 5.5074C7.89989 5.34233 7.75313 5.21387 7.58807 5.21387H6.37734C6.21228 5.21387 6.06552 5.34234 6.04722 5.5074L5.90045 6.47962C5.64365 6.58966 5.57033 6.60809 5.31339 6.71813L4.54295 6.13106C4.41448 6.02102 4.21283 6.03931 4.10266 6.16778L3.24051 7.02994C3.11204 7.15841 3.11204 7.34177 3.20378 7.47023L3.79085 8.25894C3.68081 8.51575 3.66238 8.58907 3.55234 8.84601L2.54353 8.99278C2.37847 9.01107 2.25 9.15784 2.25 9.3229V10.5336C2.25 10.6987 2.37847 10.8455 2.54353 10.8637L3.51575 11.0105C3.62579 11.2673 3.64422 11.3406 3.75426 11.5976L3.16719 12.3863C3.05715 12.5148 3.07545 12.7164 3.20392 12.8266L4.06607 13.6887C4.19454 13.8172 4.3779 13.8172 4.50636 13.7255L5.29508 13.1384C5.55188 13.2484 5.6252 13.2669 5.88214 13.3769L6.02878 14.3491C6.04708 14.5142 6.19385 14.6427 6.3589 14.6427H7.71638C7.71638 12.4597 9.49571 10.6804 11.697 10.6804ZM6.98261 11.5425C6.10214 11.5425 5.36833 10.8271 5.36833 9.92824C5.36833 9.04777 6.08374 8.31396 6.98261 8.31396C7.86308 8.31396 8.57849 9.02937 8.57849 9.92824C8.57849 10.8271 7.86308 11.5425 6.98261 11.5425Z" fill="#232B35"/>
<path d="M11.6971 11.3779C9.88104 11.3779 8.41357 12.8455 8.41357 14.6615C8.41357 16.4775 9.88111 17.945 11.6971 17.945C13.5132 17.945 14.9807 16.4775 14.9807 14.6615C14.9625 12.8455 13.495 11.3779 11.6971 11.3779ZM12.8345 14.9917H11.6788C11.4953 14.9917 11.3303 14.8449 11.3303 14.6431V12.8637C11.3303 12.6803 11.477 12.5152 11.6788 12.5152C11.8806 12.5152 12.0274 12.6619 12.0274 12.8637V14.3128H12.8346C13.018 14.3128 13.1831 14.4596 13.1831 14.6614C13.1831 14.845 13.0363 14.9917 12.8345 14.9917Z" fill="#232B35"/>
<path d="M13.3297 2.09553H14.3386L11.0734 5.34242C10.9449 5.47089 10.9449 5.69098 11.0734 5.81932C11.1467 5.89264 11.2202 5.91107 11.3119 5.91107C11.4037 5.91107 11.4954 5.87435 11.5504 5.81932L14.7973 2.57244V3.58138C14.7973 3.76487 14.9441 3.92995 15.1459 3.92995C15.3477 3.92995 15.4944 3.78318 15.4944 3.58138V1.747C15.4944 1.56351 15.3477 1.39844 15.1459 1.39844H13.3115C13.128 1.39844 12.9629 1.5452 12.9629 1.747C12.9628 1.94879 13.1463 2.09557 13.3296 2.09557L13.3297 2.09553Z" fill="#232B35"/>
<path d="M8.54173 4.35226C8.63348 4.35226 8.72522 4.31553 8.78024 4.26051L11.3666 1.674V2.68294C11.3666 2.86643 11.5134 3.03151 11.7152 3.03151C11.917 3.03151 12.0637 2.88474 12.0637 2.68294V0.848565C12.0637 0.665074 11.917 0.5 11.7152 0.5H9.8808C9.69731 0.5 9.53224 0.646767 9.53224 0.848565C9.53224 1.05036 9.679 1.19713 9.8808 1.19713H10.8897L8.28483 3.76519C8.15636 3.89366 8.15636 4.11376 8.28483 4.2421C8.35828 4.31555 8.45002 4.35227 8.54177 4.35227L8.54173 4.35226Z" fill="#232B35"/>
<path d="M16.063 4.86621H14.2286C14.0451 4.86621 13.88 5.01298 13.88 5.21478C13.88 5.41657 14.0268 5.56334 14.2286 5.56334H15.2375L12.651 8.13141C12.5226 8.25987 12.5226 8.47997 12.651 8.60831C12.7244 8.68163 12.7978 8.70006 12.8895 8.70006C12.9813 8.70006 13.073 8.66333 13.1281 8.60831L15.7146 6.0218V7.03075C15.7146 7.21424 15.8613 7.37931 16.0631 7.37931C16.2649 7.37931 16.4117 7.23254 16.4117 7.03075V5.19637C16.4116 5.013 16.2465 4.86624 16.063 4.86624L16.063 4.86621Z" fill="#232B35"/>
</g>
<defs>
<clipPath id="clip0_420_158">
<rect width="18" height="18" fill="white" transform="translate(0 0.5)"/>
</clipPath>
</defs>
</svg>
