<svg width="18" height="19" viewBox="0 0 18 19" fill="none" xmlns="http://www.w3.org/2000/svg">
<g clip-path="url(#clip0_420_168)">
<path d="M11.8382 13.366C11.8818 13.3859 11.9254 13.3928 11.9689 13.3928C12.0931 13.3928 12.2104 13.3257 12.2674 13.2084C12.925 11.8833 13.0827 10.7091 12.7371 9.71609C12.4451 8.88083 11.8681 8.40742 11.5494 8.20312C11.3851 9.55181 10.9758 11.0413 10.3215 12.6416C10.3114 12.6683 10.2981 12.6953 10.2847 12.7188L11.8382 13.366Z" fill="#232B35"/>
<path d="M2.42821 9.71568C2.08274 10.7086 2.24026 11.8829 2.89454 13.2079C2.95487 13.3253 3.0724 13.3924 3.19619 13.3924C3.24018 13.3924 3.28382 13.3853 3.32729 13.3656L4.88058 12.7181C4.86719 12.6947 4.8538 12.6679 4.84372 12.641C4.18947 11.0338 3.77687 9.5479 3.61259 8.19922C3.29041 8.41081 2.72013 8.88337 2.42823 9.71566L2.42821 9.71568Z" fill="#232B35"/>
<path d="M9.8412 2.79206C8.94945 1.32307 7.83965 0.600146 7.76194 0.550073C7.65118 0.483309 7.51366 0.483309 7.40291 0.550073C7.32536 0.600146 6.21473 1.32271 5.32227 2.7917C6.01096 3.16273 6.7836 3.36494 7.57974 3.36494C8.37797 3.36512 9.15182 3.16291 9.84122 2.79206H9.8412Z" fill="#232B35"/>
<path d="M7.58248 7.72222C8.03576 7.72222 8.40434 7.35362 8.40434 6.90035C8.40434 6.44706 8.03557 6.07812 7.58248 6.07812C7.12919 6.07812 6.76025 6.44724 6.76025 6.90035C6.76025 7.35363 7.1292 7.72222 7.58248 7.72222Z" fill="#232B35"/>
<path d="M4.19922 6.89805C4.19922 8.4849 4.62519 10.3299 5.46391 12.3896C5.51381 12.5138 5.6383 12.5976 5.77218 12.5976H9.38893C9.5261 12.5976 9.65059 12.5138 9.70049 12.3896C10.5392 10.3299 10.9622 8.48129 10.9622 6.89805C10.9622 5.47392 10.6204 4.31022 10.1628 3.38059C9.3754 3.805 8.49077 4.0364 7.57935 4.0364C6.66953 4.0364 5.78628 3.80464 4.99953 3.37988C4.5414 4.30955 4.19926 5.47374 4.19926 6.89805H4.19922ZM7.58247 5.40787C8.40572 5.40787 9.07528 6.07742 9.07528 6.90067C9.07528 7.72392 8.40572 8.39383 7.58247 8.39383C6.75923 8.39383 6.08931 7.72392 6.08931 6.90067C6.08931 6.0776 6.75923 5.40787 7.58247 5.40787Z" fill="#232B35"/>
<path d="M5.77253 13.268C5.75236 13.268 5.73567 13.268 5.71551 13.2646C5.62823 13.5667 5.5712 13.9525 5.60145 14.4153C5.60823 14.5092 5.65517 14.5932 5.72889 14.6434C5.80609 14.7004 5.89998 14.7173 5.99056 14.6937L6.37637 14.593C6.36629 15.2841 6.48034 16.5925 7.40636 17.2198C7.46009 17.2533 7.52042 17.2738 7.58075 17.2738C7.64456 17.2738 7.70489 17.2533 7.75514 17.2198C8.68445 16.5925 8.79849 15.2841 8.78843 14.593L9.17424 14.6937C9.26482 14.7171 9.35871 14.7004 9.4359 14.6434C9.5098 14.5932 9.55674 14.5092 9.56335 14.4153C9.5936 13.9523 9.53657 13.5665 9.44929 13.2646C9.42912 13.268 9.40896 13.268 9.38896 13.268H5.77253Z" fill="#232B35"/>
<path d="M12.6478 6.24783C12.8114 6.40464 13.0023 6.52054 13.2069 6.59555C13.4182 6.67056 13.6228 6.71146 13.8205 6.71146C13.8683 6.71146 13.916 6.70466 13.9637 6.69781C14.0115 6.69101 14.0592 6.67055 14.1069 6.65006C14.1478 6.6228 14.1819 6.5955 14.2092 6.5546C14.2365 6.5137 14.2501 6.46595 14.2501 6.4046C14.2501 6.29549 14.1887 6.21368 14.0592 6.15233C13.9296 6.09097 13.7796 6.02962 13.6024 5.96822C13.4455 5.91367 13.2887 5.85231 13.1182 5.79095C12.9546 5.72275 12.8046 5.64095 12.6614 5.53184C12.525 5.42959 12.4091 5.30003 12.3205 5.15002C12.2318 5.00002 12.1841 4.81591 12.1841 4.59775C12.1841 4.40683 12.2182 4.23637 12.2796 4.08637C12.3409 3.93636 12.4296 3.8068 12.5387 3.70455C12.6478 3.59545 12.7569 3.51364 12.9001 3.44544C13.0433 3.37724 13.2069 3.32953 13.3432 3.29543L13.3432 2.75H14.1614V3.28183C14.3659 3.30909 14.5568 3.36364 14.741 3.43865C14.9251 3.51365 15.0955 3.62275 15.2523 3.76592L14.6523 4.55686C14.5364 4.46141 14.4 4.3796 14.25 4.32505C14.1 4.2705 13.9569 4.24324 13.8205 4.24324C13.7659 4.24324 13.7114 4.24324 13.65 4.25004C13.5887 4.25684 13.5341 4.27049 13.4795 4.29095C13.425 4.3114 13.3841 4.3455 13.35 4.3864C13.3159 4.4273 13.2954 4.48186 13.2954 4.55686C13.2954 4.61822 13.3159 4.66597 13.35 4.70687C13.3841 4.74777 13.4318 4.78187 13.5 4.81597C13.5613 4.85007 13.6363 4.87733 13.7113 4.91143C13.7932 4.93868 13.875 4.96598 13.9636 4.99323C14.1136 5.04098 14.2704 5.10234 14.4409 5.16369C14.6045 5.22505 14.7546 5.3137 14.8977 5.41596C15.0341 5.51822 15.15 5.64777 15.2386 5.80463C15.3273 5.96144 15.375 6.15236 15.375 6.38422C15.375 6.56149 15.3409 6.71833 15.2727 6.8615C15.2045 7.00471 15.1159 7.12741 15.0068 7.22966C14.8977 7.33192 14.7682 7.42058 14.6182 7.49558C14.4681 7.56378 14.2909 7.61829 14.1545 7.65239L14.1546 8.27293H13.3568V7.6729C13.1523 7.64564 12.8727 7.58424 12.6341 7.48879C12.3954 7.39333 12.1909 7.25697 12 7.07287L12.6478 6.24783Z" fill="#232B35"/>
<path d="M3.35986 16.6932C3.45078 16.7804 3.55685 16.8447 3.67049 16.8864C3.78792 16.9281 3.90156 16.9508 4.0114 16.9508C4.03793 16.9508 4.06443 16.947 4.09096 16.9432C4.11749 16.9394 4.14399 16.9281 4.17052 16.9167C4.19325 16.9016 4.21219 16.8864 4.22733 16.8637C4.24247 16.8409 4.25006 16.8144 4.25006 16.7803C4.25006 16.7197 4.21597 16.6743 4.14399 16.6402C4.07201 16.6061 3.98868 16.572 3.8902 16.5379C3.80308 16.5076 3.71594 16.4735 3.62124 16.4394C3.53032 16.4015 3.44697 16.3561 3.36744 16.2955C3.29169 16.2387 3.22729 16.1667 3.17804 16.0833C3.12879 16 3.10229 15.8977 3.10229 15.7765C3.10229 15.6705 3.12123 15.5758 3.15532 15.4924C3.1894 15.4091 3.23865 15.3371 3.29927 15.2803C3.35988 15.2197 3.4205 15.1742 3.50003 15.1364C3.57959 15.0985 3.67048 15.072 3.74624 15.053L3.74621 14.75H4.20076V15.0455C4.31441 15.0606 4.42047 15.0909 4.52276 15.1326C4.62504 15.1743 4.71974 15.2349 4.80686 15.3144L4.47351 15.7538C4.40911 15.7008 4.33336 15.6553 4.25002 15.625C4.16669 15.5947 4.08715 15.5796 4.01137 15.5796C3.98106 15.5796 3.95076 15.5796 3.91667 15.5834C3.88259 15.5871 3.85228 15.5947 3.82197 15.6061C3.79166 15.6174 3.76894 15.6364 3.74999 15.6591C3.73105 15.6818 3.71969 15.7121 3.71969 15.7538C3.71969 15.7879 3.73105 15.8144 3.74999 15.8371C3.76894 15.8599 3.79544 15.8788 3.83333 15.8978C3.86741 15.9167 3.90908 15.9318 3.95075 15.9508C3.9962 15.9659 4.04167 15.9811 4.0909 15.9962C4.17423 16.0228 4.26135 16.0569 4.35605 16.0909C4.44697 16.125 4.53031 16.1743 4.60985 16.2311C4.6856 16.2879 4.75 16.3599 4.79925 16.447C4.8485 16.5341 4.875 16.6402 4.875 16.769C4.875 16.8675 4.85605 16.9546 4.81819 17.0342C4.7803 17.1137 4.73107 17.1819 4.67046 17.2387C4.60985 17.2955 4.53787 17.3448 4.45453 17.3864C4.37119 17.4243 4.27271 17.4546 4.19696 17.4736L4.19699 17.8183H3.75379V17.4849C3.64014 17.4698 3.48483 17.4357 3.35227 17.3827C3.21968 17.3296 3.10606 17.2539 3 17.1516L3.35986 16.6932Z" fill="#232B35"/>
</g>
<defs>
<clipPath id="clip0_420_168">
<rect width="18" height="18" fill="white" transform="translate(0 0.5)"/>
</clipPath>
</defs>
</svg>
