<svg width="18" height="19" viewBox="0 0 18 19" fill="none" xmlns="http://www.w3.org/2000/svg">
<g clip-path="url(#clip0_420_217)">
<path d="M17.3286 7.09472H16.316C15.9312 7.09472 15.6071 6.85174 15.4654 6.48711C15.4248 6.36562 15.3641 6.24413 15.3236 6.14284C15.1615 5.79856 15.2223 5.37321 15.5058 5.11L16.2349 4.38091C16.5994 4.01644 16.5994 3.44922 16.2349 3.08475L14.6552 1.50506C14.2907 1.14059 13.7235 1.14059 13.359 1.50506L12.6299 2.23415C12.3666 2.49747 11.9414 2.57842 11.5971 2.41639C11.4756 2.37584 11.3743 2.3151 11.2528 2.27455C10.8884 2.13272 10.6452 1.80878 10.6452 1.42395V0.411325C10.6452 -0.0949868 10.2402 -0.5 9.73389 -0.5H7.50605C6.99974 -0.5 6.59472 -0.0949868 6.59472 0.411325V1.44416C6.59472 1.829 6.35174 2.17325 5.98711 2.29477C5.86562 2.33531 5.76433 2.37572 5.64284 2.4366C5.29856 2.59864 4.89353 2.51755 4.61 2.25436L3.88091 1.52528C3.51644 1.1608 2.94922 1.1608 2.58475 1.52528L1.00506 3.10497C0.640587 3.46944 0.640587 4.03665 1.00506 4.40113L1.73415 5.13022C1.99747 5.39354 2.07842 5.81876 1.91639 6.16305C1.85564 6.28455 1.8151 6.38584 1.77455 6.50733C1.63272 6.8718 1.30878 7.11494 0.923949 7.11494H-0.0886752C-0.594987 7.11494 -1 7.51995 -1 8.02626V10.2541C-1 10.7402 -0.594987 11.1453 -0.0886752 11.1453H0.903732C1.28857 11.1453 1.63282 11.3882 1.75434 11.7529C1.79488 11.8744 1.85563 11.9958 1.89617 12.1173C2.05821 12.4616 1.97712 12.8666 1.71393 13.1502L1.00502 13.8591C0.640551 14.2236 0.640551 14.7908 1.00502 15.1552L2.58472 16.7349C2.94919 17.0994 3.5164 17.0994 3.88087 16.7349L4.56942 16.0464C4.83275 15.7831 5.23775 15.7021 5.58204 15.8641C5.72388 15.9249 5.86557 15.9856 5.98706 16.0464C6.33133 16.1882 6.57431 16.5122 6.57431 16.897L6.57445 17.8287C6.57445 18.335 6.97946 18.74 7.48577 18.74H9.71362C10.2199 18.74 10.6249 18.335 10.6249 17.8287V16.8363C10.6249 16.4718 10.8477 16.1274 11.2122 15.9857C11.354 15.9249 11.4957 15.8844 11.6172 15.8034C11.9615 15.6414 12.3665 15.7225 12.6298 15.9857L13.3184 16.6742C13.6828 17.0387 14.2501 17.0387 14.6145 16.6742L16.1942 15.0945C16.5587 14.73 16.5587 14.1628 16.1942 13.7984L15.5057 13.13C15.2424 12.8667 15.1614 12.4617 15.3234 12.0972C15.3842 11.9757 15.4247 11.8542 15.4653 11.7327C15.6071 11.3682 15.931 11.1251 16.3159 11.1251H17.3285C17.8348 11.1251 18.2398 10.7201 18.2398 10.2138V7.98594C18.2398 7.49984 17.8348 7.09479 17.3285 7.09479L17.3286 7.09472ZM8.62005 12.6642C6.65556 12.6642 5.07587 11.0845 5.07587 9.11997C5.07587 7.15548 6.65556 5.57579 8.62005 5.57579C10.5845 5.57579 12.1642 7.15548 12.1642 9.11997C12.1642 11.0845 10.5845 12.6642 8.62005 12.6642Z" fill="#232B35"/>
</g>
<defs>
<clipPath id="clip0_420_217">
<rect width="18" height="18" fill="white" transform="translate(0 0.5)"/>
</clipPath>
</defs>
</svg>
